<?xml version="1.0" standalone="no"?>
<!DOCTYPE svg PUBLIC "-//W3C//DTD SVG 20010904//EN"
 "http://www.w3.org/TR/2001/REC-SVG-20010904/DTD/svg10.dtd">
<svg version="1.0" xmlns="http://www.w3.org/2000/svg"
 width="840.000000pt" height="494.000000pt" viewBox="0 0 840.000000 494.000000"
 preserveAspectRatio="xMidYMid meet">

<g transform="translate(0.000000,494.000000) scale(0.100000,-0.100000)"
fill="#000000" stroke="none">
<path d="M1716 4525 c-87 -31 -136 -100 -136 -189 0 -87 22 -111 300 -343 140
-116 256 -215 257 -220 2 -4 -75 -47 -170 -95 -459 -232 -977 -581 -1382 -931
-163 -142 -375 -349 -375 -367 0 -19 222 -236 379 -369 454 -389 921 -700
1441 -960 571 -285 1091 -448 1681 -527 159 -21 628 -30 812 -15 331 27 634
86 978 190 90 27 181 57 202 66 32 13 42 14 55 3 9 -7 151 -124 315 -261 164
-136 313 -255 330 -264 41 -22 132 -22 173 0 71 37 122 131 111 204 -13 75
-36 100 -271 295 -127 105 -235 195 -239 199 -5 4 95 60 223 124 438 223 845
486 1235 799 232 186 555 486 555 516 0 26 -259 272 -485 460 -139 116 -435
335 -595 441 -860 570 -1712 892 -2565 969 -143 13 -537 13 -690 -1 -389 -33
-793 -123 -1188 -265 -54 -20 -104 -33 -110 -31 -7 3 -158 127 -337 277 -179
149 -336 277 -350 285 -41 22 -111 26 -154 10z m2856 -680 c516 -55 1027 -208
1563 -469 476 -232 939 -533 1353 -879 72 -61 132 -114 132 -117 0 -10 -260
-224 -415 -340 -179 -135 -466 -326 -660 -439 -161 -95 -461 -247 -618 -315
l-108 -47 -107 89 c-59 49 -233 194 -387 321 -154 128 -292 244 -308 257 l-27
24 20 39 c57 112 97 335 87 489 -31 501 -369 900 -866 1025 -124 31 -378 31
-503 -1 -119 -29 -228 -73 -321 -127 l-78 -46 -52 43 c-290 239 -349 291 -335
299 27 15 284 87 423 118 126 29 419 75 525 84 128 10 557 6 682 -8z m-1804
-591 c150 -124 272 -229 272 -234 0 -5 -16 -35 -35 -67 -152 -256 -189 -613
-91 -899 110 -325 375 -590 698 -698 134 -45 213 -58 363 -58 294 0 504 78
756 283 l27 21 305 -253 c168 -140 305 -258 303 -263 -6 -24 -379 -112 -644
-153 -166 -26 -198 -27 -517 -27 -369 -1 -438 5 -741 65 -803 157 -1684 593
-2454 1215 -91 73 -181 147 -200 164 l-35 30 35 30 c106 92 393 318 510 401
339 242 707 458 1040 611 69 32 128 58 131 58 3 0 128 -102 277 -226z m1400
-99 c172 -41 346 -157 447 -300 87 -122 128 -230 145 -373 13 -115 -14 -322
-41 -322 -15 0 -1104 910 -1104 922 0 16 132 66 222 83 91 17 235 13 331 -10z
m-268 -841 c322 -267 586 -490 588 -494 7 -18 -125 -101 -218 -138 -179 -71
-412 -70 -590 2 -420 171 -609 660 -409 1059 16 31 33 57 37 57 4 0 271 -219
592 -486z"/>
</g>
</svg>
