<?xml version="1.0" standalone="no"?>
<!DOCTYPE svg PUBLIC "-//W3C//DTD SVG 20010904//EN"
 "http://www.w3.org/TR/2001/REC-SVG-20010904/DTD/svg10.dtd">
<svg version="1.0" xmlns="http://www.w3.org/2000/svg"
 width="281.000000pt" height="179.000000pt" viewBox="0 0 281.000000 179.000000"
 preserveAspectRatio="xMidYMid meet">

<g transform="translate(0.000000,179.000000) scale(0.100000,-0.100000)"
fill="#000000" stroke="none">
<path d="M1285 1654 c-176 -27 -309 -70 -466 -150 -201 -103 -379 -236 -562
-421 -123 -124 -157 -168 -157 -200 0 -49 232 -283 424 -427 201 -151 392
-249 593 -303 89 -25 115 -27 288 -27 177 -1 197 1 287 26 115 32 247 85 338
135 213 118 460 319 621 506 80 92 79 100 -23 213 -306 332 -644 549 -978 625
-83 19 -301 33 -365 23z m377 -164 c184 -48 392 -158 578 -303 81 -64 310
-287 310 -303 0 -20 -231 -236 -339 -317 -558 -421 -1054 -421 -1612 0 -109
82 -339 298 -339 318 0 16 205 219 290 286 137 110 327 223 469 279 198 78
445 93 643 40z"/>
<path d="M1320 1296 c-83 -18 -149 -54 -211 -115 -156 -156 -166 -392 -23
-567 112 -138 337 -184 502 -103 173 84 267 272 228 456 -19 94 -47 146 -115
213 -63 64 -138 103 -225 119 -71 13 -85 13 -156 -3z m223 -159 c101 -59 154
-159 144 -273 -15 -196 -219 -316 -399 -236 -65 29 -104 67 -137 134 -76 152
-3 335 156 394 62 23 180 13 236 -19z"/>
</g>
</svg>
